<?xml version="1.0" encoding="utf-8"?>
<!-- Generator: Adobe Illustrator 23.0.4, SVG Export Plug-In . SVG Version: 6.00 Build 0)  -->
<svg version="1.1" id="Layer_1" xmlns="http://www.w3.org/2000/svg" xmlns:xlink="http://www.w3.org/1999/xlink" x="0px" y="0px"
	 viewBox="0 0 360.98 48.06" style="enable-background:new 0 0 360.98 48.06;" xml:space="preserve">
<style type="text/css">
	.st0{fill:#1D252D;}
</style>
<g>
	<path class="st0" d="M191.23,22.4l-0.45,3.03c-0.44,2.99,0.41,4.42,5.17,4.42h4.77c4.36,0,5.62,0.02,5.62-0.09l1.85-11.59l-10.31,0
		C193.86,18.17,191.76,18.83,191.23,22.4z M212.2,10.65l-3.07,21.33l-9.13,0h-4.08c-5.31,0-8.85-1.18-8.07-6.51l0.4-2.72
		c0.73-4.93,3.12-6.55,10.17-6.55h10.04l0.82-5.54H212.2z"/>
	<path class="st0" d="M234.43,22.43l0.15-1.03c0.23-1.57,0.02-3.14-3.51-3.14h-8.52c-3.06,0-4.13,0.65-4.49,4.17H234.43z
		 M236.28,29.81c-0.71,1.89-1.03,2.24-5,2.24h-9.4c-3.81,0-8.08-0.63-7.24-6.32l0.49-3.36c0.82-5.6,3.17-6.23,7.41-6.23h8.7
		c5.24,0,6.87,1.18,6.05,6.69l-0.25,1.72h-19.3l-0.14,0.97c-0.52,3.51,1.11,4.3,5.9,4.3H236.28z"/>
	<path class="st0" d="M262.88,18.24c0-1.35-0.72-2.11-3.56-2.11h-10.68c-5.34,0-6.59,1.39-6.98,3.89l-0.14,0.91
		c-0.46,2.93,0.97,3.62,5.3,3.62h10.13c3.68,0,3.83,1.34,3.6,2.82c-0.37,2.41-2.3,2.43-6.91,2.43l-13.17,0.02
		c0,2.27,1.31,2.19,3.55,2.19h10.99c3.75,0,7.47-0.15,8.14-4.47c0.65-4.23-1.95-5.17-6.88-5.17h-9.1c-2.47,0-2.79-0.52-2.6-1.79
		l0.1-0.56c0.27-1.75,1.29-1.78,5.69-1.78H262.88z"/>
	<polygon class="st0" points="266.88,32.02 269.72,32.02 272.06,16.2 269.19,16.2 	"/>
	<path class="st0" d="M19.41,20.44c0,0-1.02,7.53-1.02,7.4h7.62c3.22,0,3.68-1,3.94-2.77l0.28-1.86c0.26-1.77,0.09-2.77-3.13-2.77
		C27.1,20.44,19.41,20.47,19.41,20.44z M10.1,38.63l3.32-22.41l14.97,0.01c8.5,0,9.02,2.45,8.42,6.49l-0.42,2.86
		c-0.59,4.04-2.04,6.5-10.54,6.5h-8.06l-0.94,6.55H10.1z"/>
	<path class="st0" d="M39.99,32.04h6.72l1.63-11.71c0.13,0,12.96,0.02,12.96-0.02c0-1.73-1.14-4.1-6.04-4.1c-3.04,0-13,0-13,0
		L39.99,32.04z"/>
	<polygon class="st0" points="72.11,16.22 65.39,16.22 63.06,32.07 69.78,32.07 	"/>
	<path class="st0" d="M74.94,26.04c-0.77,5.22,3.03,6.28,6.46,6.28h10.04c3.43,0,7.54-1.06,8.31-6.28l0.56-3.79
		c0.77-5.22-3.03-6.28-6.46-6.28H83.8c-3.43,0-7.54,1.06-8.3,6.28L74.94,26.04z M82.05,23.4c0.33-2.27,1.94-2.95,5.02-2.95h1.61
		c4.34,0,5.1,0.5,4.79,2.61l-0.32,2.18c-0.31,2.11-1.22,2.61-5.56,2.61h-1.61c-3.08,0-4.48-0.69-4.15-2.96L82.05,23.4z"/>
	<path class="st0" d="M140.72,26.79c-0.64,4.38,2.25,5.24,6.38,5.24h3.16c5.35,0,7.45-1.42,8.1-4.04c0,0-6.98,0-9.15,0
		c-1.21,0-1.88-0.46-1.71-1.64l0.87-5.83h10.42l0.63-4.29h-10.43l0.8-5.48h-6.67L140.72,26.79z"/>
	<polygon class="st0" points="136.82,16.16 130.11,16.16 127.78,32.02 134.5,32.02 	"/>
	<path class="st0" d="M104.02,32.04h6.72l1.67-11.78c0.13,0,12.94,0.04,12.94,0c0-1.73-1.14-4.1-6.04-4.1c-3.04,0-13.01,0-13.01,0
		L104.02,32.04z"/>
	<g>
		<path class="st0" d="M296.29,29.72L298,18.37h-12.09c-3.2,0-5.56,0.74-5.99,3.45l-0.52,3.24c-0.59,3.78,0.81,4.68,4.62,4.68
			C284.02,29.75,296.29,29.8,296.29,29.72z M276.34,36.48h10.22c6.18,0,8.63,0.03,9.28-4.43l-6.34,0h-6.43
			c-5.2,0-7.43-2.36-6.81-6.59l0.4-2.74c0.88-5.97,5.84-6.49,9.33-6.49h15.3l-2.42,16.53c-0.73,4.97-5.78,5.97-9.67,5.97h-8.61
			C277.96,38.74,276.34,38.79,276.34,36.48z"/>
		<path class="st0" d="M303.5,32.05h2.97l1.31-8.9c0.54-3.68,0.64-4.05,0.74-4.85h9.26c6.37,0,6.27,1.5,5.93,3.81l-1.46,9.95h2.97
			l1.56-10.59c0.41-2.83-0.69-5.16-6.25-5.16h-14.72L303.5,32.05z"/>
		<path class="st0" d="M351.99,18.33c0-1.35-0.72-2.11-3.57-2.11h-10.68c-5.34,0-6.6,1.39-6.98,3.89l-0.14,0.91
			c-0.46,2.93,0.97,3.61,5.29,3.61h10.13c3.68,0,3.83,1.34,3.61,2.82c-0.37,2.41-2.3,2.43-6.91,2.43l-13.17,0.02
			c0,2.27,1.31,2.19,3.55,2.19h10.99c3.75,0,7.48-0.15,8.14-4.47c0.65-4.23-1.95-5.17-6.88-5.17h-9.1c-2.47,0-2.79-0.52-2.59-1.79
			l0.09-0.56c0.27-1.75,1.29-1.78,5.69-1.78L351.99,18.33z"/>
	</g>
	<path class="st0" d="M166.02,38.63"/>
	<path class="st0" d="M164.37,38.63h2.32c2.05,0,4.85-0.01,6.98-3.01l13.28-19.41h-7.27l-5.78,8.39l-4.39-8.39h-7.31l7.86,14.06
		L164.37,38.63z"/>
</g>
</svg>
